<svg id="visual" viewBox="0 0 1930 1000" width="1930" height="1000" xmlns="http://www.w3.org/2000/svg" xmlns:xlink="http://www.w3.org/1999/xlink" version="1.1"><path d="M0 121L29.2 124.3C58.3 127.7 116.7 134.3 175.2 124.3C233.7 114.3 292.3 87.7 350.8 92.7C409.3 97.7 467.7 134.3 526.2 137.7C584.7 141 643.3 111 701.8 94.3C760.3 77.7 818.7 74.3 877.2 86C935.7 97.7 994.3 124.3 1052.8 122.7C1111.3 121 1169.7 91 1228.2 77.7C1286.7 64.3 1345.3 67.7 1403.8 74.3C1462.3 81 1520.7 91 1579.2 104.3C1637.7 117.7 1696.3 134.3 1754.8 137.7C1813.3 141 1871.7 131 1900.8 126L1930 121L1930 0L1900.8 0C1871.7 0 1813.3 0 1754.8 0C1696.3 0 1637.7 0 1579.2 0C1520.7 0 1462.3 0 1403.8 0C1345.3 0 1286.7 0 1228.2 0C1169.7 0 1111.3 0 1052.8 0C994.3 0 935.7 0 877.2 0C818.7 0 760.3 0 701.8 0C643.3 0 584.7 0 526.2 0C467.7 0 409.3 0 350.8 0C292.3 0 233.7 0 175.2 0C116.7 0 58.3 0 29.2 0L0 0Z" fill="#0f3870"></path><path d="M0 321L29.2 337.7C58.3 354.3 116.7 387.7 175.2 394.3C233.7 401 292.3 381 350.8 394.3C409.3 407.7 467.7 454.3 526.2 471C584.7 487.7 643.3 474.3 701.8 462.7C760.3 451 818.7 441 877.2 436C935.7 431 994.3 431 1052.8 411C1111.3 391 1169.7 351 1228.2 344.3C1286.7 337.7 1345.3 364.3 1403.8 376C1462.3 387.7 1520.7 384.3 1579.2 384.3C1637.7 384.3 1696.3 387.7 1754.8 416C1813.3 444.3 1871.7 497.7 1900.8 524.3L1930 551L1930 119L1900.8 124C1871.7 129 1813.3 139 1754.8 135.7C1696.3 132.3 1637.7 115.7 1579.2 102.3C1520.7 89 1462.3 79 1403.8 72.3C1345.3 65.7 1286.7 62.3 1228.2 75.7C1169.7 89 1111.3 119 1052.8 120.7C994.3 122.3 935.7 95.7 877.2 84C818.7 72.3 760.3 75.7 701.8 92.3C643.3 109 584.7 139 526.2 135.7C467.7 132.3 409.3 95.7 350.8 90.7C292.3 85.7 233.7 112.3 175.2 122.3C116.7 132.3 58.3 125.7 29.2 122.3L0 119Z" fill="#092853"></path><path d="M0 481L29.2 496C58.3 511 116.7 541 175.2 536C233.7 531 292.3 491 350.8 496C409.3 501 467.7 551 526.2 577.7C584.7 604.3 643.3 607.7 701.8 612.7C760.3 617.7 818.7 624.3 877.2 616C935.7 607.7 994.3 584.3 1052.8 551C1111.3 517.7 1169.7 474.3 1228.2 482.7C1286.7 491 1345.3 551 1403.8 556C1462.3 561 1520.7 511 1579.2 491C1637.7 471 1696.3 481 1754.8 514.3C1813.3 547.7 1871.7 604.3 1900.8 632.7L1930 661L1930 549L1900.8 522.3C1871.7 495.7 1813.3 442.3 1754.8 414C1696.3 385.7 1637.7 382.3 1579.2 382.3C1520.7 382.3 1462.3 385.7 1403.8 374C1345.3 362.3 1286.7 335.7 1228.2 342.3C1169.7 349 1111.3 389 1052.8 409C994.3 429 935.7 429 877.2 434C818.7 439 760.3 449 701.8 460.7C643.3 472.3 584.7 485.7 526.2 469C467.7 452.3 409.3 405.7 350.8 392.3C292.3 379 233.7 399 175.2 392.3C116.7 385.7 58.3 352.3 29.2 335.7L0 319Z" fill="#041938"></path><path d="M0 841L29.2 832.7C58.3 824.3 116.7 807.7 175.2 799.3C233.7 791 292.3 791 350.8 797.7C409.3 804.3 467.7 817.7 526.2 819.3C584.7 821 643.3 811 701.8 802.7C760.3 794.3 818.7 787.7 877.2 782.7C935.7 777.7 994.3 774.3 1052.8 772.7C1111.3 771 1169.7 771 1228.2 794.3C1286.7 817.7 1345.3 864.3 1403.8 856C1462.3 847.7 1520.7 784.3 1579.2 759.3C1637.7 734.3 1696.3 747.7 1754.8 774.3C1813.3 801 1871.7 841 1900.8 861L1930 881L1930 659L1900.8 630.7C1871.7 602.3 1813.3 545.7 1754.8 512.3C1696.3 479 1637.7 469 1579.2 489C1520.7 509 1462.3 559 1403.8 554C1345.3 549 1286.7 489 1228.2 480.7C1169.7 472.3 1111.3 515.7 1052.8 549C994.3 582.3 935.7 605.7 877.2 614C818.7 622.3 760.3 615.7 701.8 610.7C643.3 605.7 584.7 602.3 526.2 575.7C467.7 549 409.3 499 350.8 494C292.3 489 233.7 529 175.2 534C116.7 539 58.3 509 29.2 494L0 479Z" fill="#041731"></path><path d="M0 1001L29.2 1001C58.3 1001 116.7 1001 175.2 1001C233.7 1001 292.3 1001 350.8 1001C409.3 1001 467.7 1001 526.2 1001C584.7 1001 643.3 1001 701.8 1001C760.3 1001 818.7 1001 877.2 1001C935.7 1001 994.3 1001 1052.8 1001C1111.3 1001 1169.7 1001 1228.2 1001C1286.7 1001 1345.3 1001 1403.8 1001C1462.3 1001 1520.7 1001 1579.2 1001C1637.7 1001 1696.3 1001 1754.8 1001C1813.3 1001 1871.7 1001 1900.8 1001L1930 1001L1930 879L1900.8 859C1871.7 839 1813.3 799 1754.8 772.3C1696.3 745.7 1637.7 732.3 1579.2 757.3C1520.7 782.3 1462.3 845.7 1403.8 854C1345.3 862.3 1286.7 815.7 1228.2 792.3C1169.7 769 1111.3 769 1052.8 770.7C994.3 772.3 935.7 775.7 877.2 780.7C818.7 785.7 760.3 792.3 701.8 800.7C643.3 809 584.7 819 526.2 817.3C467.7 815.7 409.3 802.3 350.8 795.7C292.3 789 233.7 789 175.2 797.3C116.7 805.7 58.3 822.3 29.2 830.7L0 839Z" fill="#05152a"></path></svg>